<svg width="106" height="72" viewBox="0 0 106 72" fill="none" xmlns="http://www.w3.org/2000/svg">
<path d="M71.4862 23.6187C73.4168 23.6187 74.9459 24.1921 76.0737 25.339C77.2206 26.4667 77.794 28.1679 77.794 30.4426V39.2735H73.3212V31.1307C73.3212 29.9074 73.0631 28.9994 72.547 28.4069C72.0501 27.7952 71.3333 27.4894 70.3967 27.4894C69.3453 27.4894 68.5139 27.8334 67.9022 28.5215C67.2905 29.1906 66.9847 30.1941 66.9847 31.5321V39.2735H62.5119V31.1307C62.5119 28.7031 61.537 27.4894 59.5873 27.4894C58.5551 27.4894 57.7332 27.8334 57.1216 28.5215C56.5099 29.1906 56.2041 30.1941 56.2041 31.5321V39.2735H51.7312V23.848H56.0033V25.6257C56.5768 24.9758 57.2745 24.4788 58.0964 24.1347C58.9374 23.7907 59.8549 23.6187 60.8489 23.6187C61.9384 23.6187 62.9228 23.8385 63.8021 24.2781C64.6814 24.6986 65.3886 25.3199 65.9238 26.1418C66.5546 25.339 67.3479 24.7177 68.3036 24.2781C69.2784 23.8385 70.3393 23.6187 71.4862 23.6187Z" fill="#29292E"/>
<path d="M95.9344 31.6181C95.9344 31.6755 95.9057 32.0769 95.8483 32.8223H84.1789C84.3891 33.7781 84.8861 34.5331 85.6698 35.0874C86.4535 35.6417 87.4284 35.9189 88.5943 35.9189C89.3972 35.9189 90.1044 35.8042 90.7161 35.5748C91.3469 35.3263 91.9298 34.9441 92.4651 34.428L94.8448 37.0084C93.3921 38.6714 91.2704 39.5029 88.4797 39.5029C86.7402 39.5029 85.2015 39.1684 83.8635 38.4994C82.5255 37.8112 81.4933 36.8651 80.7669 35.6609C80.0406 34.4566 79.6774 33.0899 79.6774 31.5608C79.6774 30.0507 80.031 28.6936 80.7382 27.4894C81.4646 26.266 82.449 25.3199 83.6914 24.6508C84.953 23.9627 86.3579 23.6187 87.9062 23.6187C89.4163 23.6187 90.783 23.9436 92.0063 24.5935C93.2296 25.2434 94.1854 26.18 94.8735 27.4033C95.5807 28.6076 95.9344 30.0125 95.9344 31.6181ZM87.9349 27.0019C86.9218 27.0019 86.0712 27.2887 85.3831 27.8621C84.695 28.4355 84.2744 29.2192 84.1215 30.2132H91.7196C91.5667 29.2383 91.1462 28.4642 90.458 27.8908C89.7699 27.2982 88.9289 27.0019 87.9349 27.0019Z" fill="#29292E"/>
<path d="M18.4074 23.8491L15.3395 39.2746H11.096L11.3827 37.7549C10.1021 38.9209 8.52512 39.5039 6.65188 39.5039C5.44766 39.5039 4.33902 39.2268 3.32594 38.6724C2.31287 38.1181 1.5005 37.3249 0.888829 36.2927C0.296276 35.2414 0 34.0085 0 32.594C0 30.8928 0.372735 29.3636 1.1182 28.0065C1.88279 26.6302 2.91498 25.5598 4.21477 24.7952C5.51456 24.0115 6.94816 23.6197 8.51556 23.6197C10.8858 23.6197 12.5583 24.3938 13.5331 25.9421L13.9345 23.8491H18.4074ZM8.02813 35.8053C8.90741 35.8053 9.69111 35.595 10.3792 35.1745C11.0674 34.7348 11.6026 34.1327 11.9849 33.3681C12.3672 32.6036 12.5583 31.7243 12.5583 30.7303C12.5583 29.679 12.2429 28.8475 11.6121 28.2359C11.0005 27.6242 10.1403 27.3184 9.03165 27.3184C8.15238 27.3184 7.36868 27.5382 6.68056 27.9778C5.99243 28.3983 5.45722 28.9909 5.07493 29.7555C4.69264 30.5201 4.50149 31.3993 4.50149 32.3933C4.50149 33.4446 4.80732 34.2761 5.41899 34.8878C6.04977 35.4994 6.91949 35.8053 8.02813 35.8053Z" fill="url(#paint0_linear)"/>
<path d="M23.9534 39.5039C22.6153 39.5039 21.3442 39.3606 20.14 39.0739C18.9549 38.768 18.0278 38.3762 17.3588 37.8983L19.0791 34.6584C19.7482 35.098 20.5605 35.4516 21.5163 35.7192C22.4911 35.9868 23.4659 36.1206 24.4408 36.1206C25.4539 36.1206 26.2089 35.9964 26.7059 35.7479C27.2028 35.4803 27.4513 35.1076 27.4513 34.6297C27.4513 34.2474 27.2315 33.9703 26.7919 33.7982C26.3522 33.6262 25.645 33.4446 24.6702 33.2535C23.5615 33.0432 22.644 32.8138 21.9177 32.5653C21.2104 32.3168 20.5892 31.9154 20.054 31.3611C19.5379 30.7877 19.2798 30.0135 19.2798 29.0387C19.2798 27.3375 19.9871 26.009 21.4016 25.0533C22.8352 24.0976 24.7084 23.6197 27.0213 23.6197C28.0917 23.6197 29.1334 23.7344 30.1465 23.9638C31.1596 24.1931 32.0197 24.5085 32.727 24.9099L31.1213 28.1785C29.8598 27.3948 28.3402 27.003 26.5625 27.003C25.5877 27.003 24.8422 27.1463 24.3261 27.4331C23.8291 27.7198 23.5806 28.083 23.5806 28.5226C23.5806 28.924 23.8004 29.2203 24.2401 29.4114C24.6797 29.5835 25.4156 29.7746 26.4478 29.9849C27.5374 30.1951 28.4262 30.4245 29.1143 30.673C29.8215 30.9024 30.4332 31.2942 30.9493 31.8485C31.4654 32.4029 31.7235 33.1579 31.7235 34.1136C31.7235 35.8339 30.9971 37.1624 29.5444 38.099C28.1108 39.0356 26.2471 39.5039 23.9534 39.5039Z" fill="url(#paint1_linear)"/>
<path d="M43.9162 30.5583L49.2205 39.2746H44.0309L40.3609 33.2821L37.637 35.5472L36.8916 39.2746H32.4187L36.6622 18H41.135L38.7552 29.8988L46.1526 23.8491H51.973L43.9162 30.5583Z" fill="url(#paint2_linear)"/>
<path d="M31.0842 13.9024V6.73438C31.0842 3.56737 33.6516 1 36.8186 1H98.4632C101.63 1 104.198 3.56737 104.198 6.73438V46.8751C104.198 50.0421 101.63 52.6094 98.4632 52.6094H88.428L91.7818 68.2603C92.0749 69.6282 90.4357 70.563 89.4076 69.6141L74.0921 55.4766H36.8186C33.6516 55.4766 31.0842 52.9093 31.0842 49.7422V46.8751" stroke="url(#paint3_linear)" stroke-width="2"/>
<defs>
<linearGradient id="paint0_linear" x1="9.18124" y1="16.7534" x2="25.3425" y2="54.3894" gradientUnits="userSpaceOnUse">
<stop stop-color="#2196F3"/>
<stop offset="1" stop-color="#00B090"/>
</linearGradient>
<linearGradient id="paint1_linear" x1="9.18124" y1="16.7534" x2="25.3425" y2="54.3894" gradientUnits="userSpaceOnUse">
<stop stop-color="#2196F3"/>
<stop offset="1" stop-color="#00B090"/>
</linearGradient>
<linearGradient id="paint2_linear" x1="9.18124" y1="16.7534" x2="25.3425" y2="54.3894" gradientUnits="userSpaceOnUse">
<stop stop-color="#2196F3"/>
<stop offset="1" stop-color="#00B090"/>
</linearGradient>
<linearGradient id="paint3_linear" x1="44" y1="-3" x2="115.5" y2="70" gradientUnits="userSpaceOnUse">
<stop stop-color="#2196F3"/>
<stop offset="1" stop-color="#00B090"/>
</linearGradient>
</defs>
</svg>
